<svg width="48" height="48" viewBox="0 0 48 48" fill="none" xmlns="http://www.w3.org/2000/svg">
<path d="M20.5072 36.4088C20.2483 36.5582 19.9834 36.6004 19.7124 36.5351C19.4413 36.4699 19.2354 36.314 19.0946 36.0673C18.9539 35.8207 18.9221 35.5649 18.9994 35.3002C19.0766 35.0354 19.2459 34.8276 19.5072 34.6767L31.6024 27.6936C30.1579 27.5776 28.9266 27.2062 27.9083 26.5793C26.89 25.9525 26.0718 25.1978 25.4537 24.3153L19.7325 27.6184C19.4736 27.7679 19.2086 27.81 18.9376 27.7448C18.6666 27.6796 18.4607 27.5237 18.3199 27.277C18.1791 27.0304 18.1474 26.7746 18.2246 26.5099C18.3019 26.2451 18.4712 26.0373 18.7325 25.8864L24.4537 22.5832C24.0199 21.5343 23.7855 20.4125 23.7506 19.218C23.7187 18.0231 24.0027 16.8069 24.6024 15.5692L5.91452 26.3587C5.65562 26.5081 5.39127 26.5499 5.12145 26.484C4.85164 26.4181 4.64513 26.2625 4.50191 26.0172C4.35869 25.772 4.32754 25.5159 4.40845 25.249C4.48936 24.9822 4.65805 24.7747 4.91452 24.6266L28.6163 10.9424C30.8868 9.63153 33.2605 9.27413 35.7374 9.87021C38.2129 10.464 40.073 11.8388 41.3177 13.9946C42.5624 16.1504 42.8243 18.451 42.1034 20.8964C41.3825 23.3418 39.8868 25.22 37.6163 26.5309L20.5072 36.4088ZM36.6163 24.7988C38.369 23.7869 39.5277 22.3258 40.0924 20.4155C40.6571 18.5052 40.4588 16.7175 39.4975 15.0524C38.5362 13.3873 37.0871 12.3218 35.1504 11.8557C33.2137 11.3896 31.369 11.6625 29.6163 12.6745C27.8635 13.6864 26.7048 15.1475 26.1401 17.0578C25.5754 18.9681 25.7737 20.7558 26.735 22.4208C27.6963 24.0859 29.1454 25.1515 31.0821 25.6176C33.0188 26.0837 34.8635 25.8107 36.6163 24.7988ZM8.09131 34.3395C7.83241 34.489 7.56806 34.5307 7.29824 34.4648C7.02843 34.3989 6.82192 34.2433 6.6787 33.9981C6.53548 33.7528 6.50433 33.4967 6.58524 33.2299C6.66615 32.963 6.83484 32.7555 7.09131 32.6074L15.0861 27.9917C15.3438 27.8429 15.6081 27.8011 15.8791 27.8663C16.1502 27.9316 16.3567 28.0872 16.4987 28.3331C16.6407 28.5791 16.6718 28.8351 16.5921 29.1013C16.5125 29.3675 16.3438 29.5749 16.0861 29.7237L8.09131 34.3395ZM13.9145 40.2151C13.6556 40.3645 13.3913 40.4063 13.1215 40.3404C12.8516 40.2745 12.6451 40.1189 12.5019 39.8736C12.3587 39.6284 12.3275 39.3723 12.4085 39.1054C12.4894 38.8386 12.6581 38.6311 12.9145 38.483L15.8608 36.782C16.1185 36.6332 16.3829 36.5914 16.6539 36.6566C16.9249 36.7219 17.1308 36.8778 17.2716 37.1245C17.4124 37.3711 17.4442 37.6268 17.3669 37.8916C17.2896 38.1564 17.1203 38.3642 16.859 38.5151L13.9145 40.2151Z" fill="white"/>
</svg>
