<svg width="48" height="48" viewBox="0 0 48 48" fill="none" xmlns="http://www.w3.org/2000/svg">
<path d="M4 19.9998H10C10.5304 19.9998 11.0391 20.2105 11.4142 20.5856C11.7893 20.9607 12 21.4694 12 21.9998V39.9998C12 40.5303 11.7893 41.039 11.4142 41.414C11.0391 41.7891 10.5304 41.9998 10 41.9998H4C3.46957 41.9998 2.96086 41.7891 2.58579 41.414C2.21071 41.039 2 40.5303 2 39.9998V21.9998C2 21.4694 2.21071 20.9607 2.58579 20.5856C2.96086 20.2105 3.46957 19.9998 4 19.9998ZM4 21.9998V39.9998H10V21.9998H4ZM35.44 38.0598L41.44 28.0598C41.8 27.4598 42 26.7398 42 25.9998V23.9998C42 22.939 41.5786 21.9215 40.8284 21.1714C40.0783 20.4213 39.0609 19.9998 38 19.9998H26.78L29.7 9.11982V9.07982C29.7947 8.74266 29.7964 8.38614 29.7048 8.04811C29.6133 7.71007 29.4319 7.40312 29.18 7.15982L17.18 19.1798C16.44 19.8998 16 20.8998 16 21.9998V35.9998C16 37.0607 16.4214 38.0781 17.1716 38.8283C17.9217 39.5784 18.9391 39.9998 20 39.9998H32C33.46 39.9998 34.74 39.2198 35.44 38.0598ZM44 25.9998C44 27.1798 43.66 28.2998 43.06 29.2198L37.24 38.8998C36.22 40.7598 34.26 41.9998 32 41.9998H20C18.4087 41.9998 16.8826 41.3677 15.7574 40.2425C14.6321 39.1172 14 37.5911 14 35.9998V21.9998C14 20.3398 14.68 18.8398 15.76 17.7598L29.18 4.31982L30.6 5.73982C31.66 6.79982 32 8.31982 31.62 9.67982L29.38 17.9998H38C39.5913 17.9998 41.1174 18.632 42.2426 19.7572C43.3679 20.8824 44 22.4085 44 23.9998V25.9998Z" fill="white"/>
</svg>
