<svg width="48" height="48" viewBox="0 0 48 48" fill="none" xmlns="http://www.w3.org/2000/svg">
<path fill-rule="evenodd" clip-rule="evenodd" d="M9.0335 19.5259C10.2428 24.2638 12.7936 29.1436 15.7774 32.151C19.8574 36.2633 23.818 37.8799 27.1814 38.011C30.532 38.14 33.5073 36.7986 35.687 34.5973C36.6681 33.6042 37.2994 32.1682 37.5638 30.3839C37.8304 28.6061 37.7238 26.5575 37.3122 24.4358C35.7424 16.3207 28.2478 9.86735 18.9958 7.59729C14.8923 6.59124 11.7613 6.75676 10.0508 8.48511C9.09535 9.45246 8.5067 10.9701 8.33821 12.935C8.17398 14.8869 8.42992 17.1634 9.0335 19.5259ZM6.05612 12.8404C6.23954 10.6649 6.90924 8.65493 8.32541 7.22109C11.0383 4.48025 15.5108 4.67157 19.6719 5.69267C29.632 8.13686 37.839 15.1104 39.5708 24.0639C40.008 26.321 40.1381 28.5674 39.8353 30.5882C39.5367 32.6003 38.7945 34.464 37.4103 35.8613C36.059 37.2396 34.4373 38.3185 32.6489 39.0292C30.8604 39.7399 28.9445 40.0667 27.0236 39.9887C22.854 39.8275 18.3645 37.8347 14.0242 33.4601C10.744 30.1539 8.06308 24.956 6.7962 19.9967C6.16063 17.5095 5.86843 15.033 6.05612 12.8404Z" fill="white"/>
<path fill-rule="evenodd" clip-rule="evenodd" d="M27.6613 17.4021C28.2706 17.4937 28.6804 17.9986 28.5743 18.5311L27.5115 23.9374L32.5239 29.8123L35.679 34.1237L39.8532 40.5354C40.1589 41.0062 39.9717 41.6048 39.4351 41.871C38.8985 42.1394 38.2164 41.9754 37.9106 41.5046L33.7655 35.1355L30.9328 31.2693L22.6094 30.1446C22 30.0615 21.5819 29.561 21.6755 29.0284C21.7691 28.4959 22.3411 28.1274 22.9505 28.2104L29.0714 29.0391L25.4795 24.8257L17.3266 17.6684C17.2246 17.5857 17.1422 17.4804 17.0857 17.3604C17.0291 17.2404 16.9998 17.1088 17 16.9756C17.0002 16.8423 17.0299 16.7109 17.0868 16.591C17.1437 16.4712 17.2264 16.3662 17.3287 16.2838C17.553 16.0994 17.8322 15.9992 18.1198 16C18.4074 16.0008 18.686 16.1024 18.9094 16.2881L25.5918 22.1545L26.3697 18.2009C26.4737 17.6684 27.0519 17.3105 27.6613 17.4021Z" fill="white"/>
</svg>
