<svg width="48" height="48" viewBox="0 0 48 48" fill="none" xmlns="http://www.w3.org/2000/svg">
<path d="M4 24C4 33.428 4 38.14 6.93 41.07C9.858 43.998 14.572 43.998 24 43.998C33.428 43.998 38.142 43.998 41.072 41.07C43.786 38.356 43.984 34.11 44 25.998M22 4C13.89 4.014 9.644 4.214 6.93 6.928C5.296 8.56 4.574 10.748 4.254 14" stroke="white" stroke-width="2" stroke-linecap="round"/>
<path d="M26 22L44 4M44 4H33.312M44 4V14.688M42 6L24 24M24 24H32M24 24V16" stroke="white" stroke-width="2" stroke-linecap="round" stroke-linejoin="round"/>
</svg>
