<svg width="48" height="48" viewBox="0 0 48 48" fill="none" xmlns="http://www.w3.org/2000/svg">
<g id="fluent:hourglass-20-regular">
<path id="Vector" d="M14.2125 43.2001C13.5997 43.2001 13.0181 43.0752 12.4677 42.8256C11.9199 42.575 11.4191 42.2325 10.9869 41.8129C10.5518 41.3952 10.2049 40.8946 9.96661 40.3405C9.72834 39.7865 9.60357 39.1903 9.59965 38.5872C9.59965 37.6112 9.69965 36.6616 9.89965 35.7384C10.2967 33.8836 11.1036 32.1411 12.2613 30.6384C12.8493 29.876 13.5162 29.1777 14.2509 28.5552L18.6188 24.9193C18.7538 24.8071 18.8624 24.6666 18.937 24.5077C19.0115 24.3489 19.0501 24.1755 19.0501 24C19.0501 23.8246 19.0115 23.6512 18.937 23.4924C18.8624 23.3335 18.7538 23.193 18.6188 23.0808L14.2509 19.4256C12.7817 18.2071 11.6027 16.6764 10.7997 14.9448C10.0043 13.2093 9.5949 11.3219 9.59965 9.41285C9.59965 8.80005 9.72445 8.21845 9.97405 7.66805C10.2237 7.11765 10.5613 6.62405 10.9869 6.18725C11.4045 5.75219 11.9051 5.40527 12.4592 5.16701C13.0132 4.92874 13.6094 4.80396 14.2125 4.80005H33.7869C34.3997 4.80005 34.9813 4.92485 35.5317 5.17445C36.0821 5.42405 36.5757 5.76165 37.0125 6.18725C37.4475 6.60491 37.7944 7.10555 38.0327 7.65957C38.271 8.2136 38.3957 8.80977 38.3997 9.41285C38.4143 11.3209 38.0112 13.2091 37.2189 14.9448C36.4144 16.6802 35.229 18.2118 33.7509 19.4256L29.3829 23.0808C29.2475 23.1928 29.1386 23.3332 29.0638 23.4921C28.989 23.651 28.9502 23.8244 28.9502 24C28.9502 24.1757 28.989 24.3491 29.0638 24.508C29.1386 24.6669 29.2475 24.8073 29.3829 24.9193L33.7509 28.5552C34.4997 29.1792 35.1621 29.8673 35.7381 30.6193C36.3141 31.3681 36.7949 32.1744 37.1805 33.0385C37.5693 33.8993 37.8693 34.7929 38.0805 35.7193C38.2933 36.6441 38.3997 37.6 38.3997 38.5872C38.3997 39.2 38.2749 39.7817 38.0253 40.3321C37.7757 40.8825 37.4381 41.3761 37.0125 41.8129C36.5948 42.2479 36.0942 42.5948 35.5401 42.8331C34.9861 43.0714 34.3899 43.1961 33.7869 43.2001H14.2125ZM33.6933 40.8C33.9965 40.8018 34.297 40.7431 34.5772 40.6273C34.8574 40.5115 35.1117 40.3409 35.3253 40.1256C35.5361 39.9176 35.702 39.6685 35.8125 39.3937C35.9187 39.1053 35.9818 38.8028 35.9997 38.4961C35.9997 36.9089 35.6749 35.4209 35.0253 34.0321C34.3636 32.6351 33.4035 31.4005 32.2125 30.4153L27.8445 26.7577C27.4386 26.4208 27.1116 25.9988 26.8869 25.5216C26.6644 25.0431 26.5492 24.5218 26.5492 23.9941C26.5492 23.4663 26.6644 22.945 26.8869 22.4664C27.1125 21.9769 27.4317 21.5641 27.8445 21.2281L32.2125 17.5896C33.4003 16.6128 34.3547 15.3828 35.0061 13.9896C35.6557 12.6024 35.9869 11.1088 35.9997 9.50885C36.0014 9.20564 35.9427 8.90513 35.8269 8.62491C35.7111 8.34468 35.5405 8.09037 35.3253 7.87685C35.1172 7.66598 34.8681 7.50014 34.5933 7.38965C34.305 7.28257 34.0026 7.21867 33.6957 7.20005H14.3061C13.998 7.19778 13.6925 7.25482 13.4061 7.36805C13.1295 7.4842 12.8802 7.65666 12.6741 7.87445C12.468 8.08636 12.3028 8.33453 12.1869 8.60645C12.0749 8.86885 12.0125 9.16885 11.9997 9.50645C11.9997 10.2808 12.0813 11.0432 12.2445 11.7936C12.4045 12.5456 12.6541 13.2704 12.9933 13.9681C13.3293 14.6688 13.7229 15.3192 14.1741 15.9192C14.6253 16.5192 15.1629 17.0752 15.7869 17.5872L20.1549 21.2256C20.5677 21.5616 20.8869 21.9736 21.1125 22.4617C21.3353 22.9405 21.4507 23.4623 21.4507 23.9904C21.4507 24.5186 21.3353 25.0404 21.1125 25.5193C20.8869 25.9944 20.5677 26.4064 20.1549 26.7552L15.7869 30.4128C14.5968 31.3952 13.6421 32.632 12.9933 34.0321C12.3436 35.4309 12.0046 36.9538 11.9997 38.4961C11.9997 38.8193 12.0557 39.1185 12.1677 39.3937C12.2838 39.6702 12.4563 39.9195 12.6741 40.1256C12.8997 40.3368 13.1437 40.4993 13.4061 40.6129C13.6685 40.7249 13.9685 40.7873 14.3061 40.8H33.6933Z" fill="white"/>
</g>
</svg>
