<svg width="48" height="48" viewBox="0 0 48 48" fill="none" xmlns="http://www.w3.org/2000/svg">
<g id="mdi-light:vector-combine">
<path id="Vector" d="M8 4H24C25.5913 4 27.1174 4.63214 28.2426 5.75736C29.3679 6.88258 30 8.4087 30 10V16H36C37.5913 16 39.1174 16.6321 40.2426 17.7574C41.3679 18.8826 42 20.4087 42 22V38C42 39.5913 41.3679 41.1174 40.2426 42.2426C39.1174 43.3679 37.5913 44 36 44H20C18.4087 44 16.8826 43.3679 15.7574 42.2426C14.6321 41.1174 14 39.5913 14 38V32H8C6.4087 32 4.88258 31.3679 3.75736 30.2426C2.63214 29.1174 2 27.5913 2 26V10C2 8.4087 2.63214 6.88258 3.75736 5.75736C4.88258 4.63214 6.4087 4 8 4ZM30 26C30 27.5913 29.3679 29.1174 28.2426 30.2426C27.1174 31.3679 25.5913 32 24 32H16V38C16 39.0609 16.4214 40.0783 17.1716 40.8284C17.9217 41.5786 18.9391 42 20 42H36C37.0609 42 38.0783 41.5786 38.8284 40.8284C39.5786 40.0783 40 39.0609 40 38V22C40 20.9391 39.5786 19.9217 38.8284 19.1716C38.0783 18.4214 37.0609 18 36 18H30V26ZM8 6C6.93913 6 5.92172 6.42143 5.17157 7.17157C4.42143 7.92172 4 8.93913 4 10V26C4 27.0609 4.42143 28.0783 5.17157 28.8284C5.92172 29.5786 6.93913 30 8 30H14V22C14 20.4087 14.6321 18.8826 15.7574 17.7574C16.8826 16.6321 18.4087 16 20 16H28V10C28 8.93913 27.5786 7.92172 26.8284 7.17157C26.0783 6.42143 25.0609 6 24 6H8ZM24 30C25.0609 30 26.0783 29.5786 26.8284 28.8284C27.5786 28.0783 28 27.0609 28 26V18H20C18.9391 18 17.9217 18.4214 17.1716 19.1716C16.4214 19.9217 16 20.9391 16 22V30H24Z" fill="white"/>
</g>
</svg>
