<svg width="48" height="48" viewBox="0 0 48 48" fill="none" xmlns="http://www.w3.org/2000/svg">
<g id="mdi-light:thumb-up">
<path id="Vector" d="M4 20.0001H10C10.5304 20.0001 11.0391 20.2108 11.4142 20.5859C11.7893 20.9609 12 21.4696 12 22.0001V40.0001C12 40.5305 11.7893 41.0392 11.4142 41.4143C11.0391 41.7894 10.5304 42.0001 10 42.0001H4C3.46957 42.0001 2.96086 41.7894 2.58579 41.4143C2.21071 41.0392 2 40.5305 2 40.0001V22.0001C2 21.4696 2.21071 20.9609 2.58579 20.5859C2.96086 20.2108 3.46957 20.0001 4 20.0001ZM4 22.0001V40.0001H10V22.0001H4ZM35.44 38.0601L41.44 28.0601C41.8 27.4601 42 26.7401 42 26.0001V24.0001C42 22.9392 41.5786 21.9218 40.8284 21.1716C40.0783 20.4215 39.0609 20.0001 38 20.0001H26.78L29.7 9.12007V9.08007C29.7947 8.7429 29.7964 8.38639 29.7048 8.04835C29.6133 7.71031 29.4319 7.40336 29.18 7.16007L17.18 19.1801C16.44 19.9001 16 20.9001 16 22.0001V36.0001C16 37.0609 16.4214 38.0784 17.1716 38.8285C17.9217 39.5786 18.9391 40.0001 20 40.0001H32C33.46 40.0001 34.74 39.2201 35.44 38.0601ZM44 26.0001C44 27.1801 43.66 28.3001 43.06 29.2201L37.24 38.9001C36.22 40.7601 34.26 42.0001 32 42.0001H20C18.4087 42.0001 16.8826 41.3679 15.7574 40.2427C14.6321 39.1175 14 37.5914 14 36.0001V22.0001C14 20.3401 14.68 18.8401 15.76 17.7601L29.18 4.32007L30.6 5.74007C31.66 6.80007 32 8.32007 31.62 9.68007L29.38 18.0001H38C39.5913 18.0001 41.1174 18.6322 42.2426 19.7574C43.3679 20.8826 44 22.4088 44 24.0001V26.0001Z" fill="white"/>
</g>
</svg>
