<svg width="48" height="48" viewBox="0 0 48 48" fill="none" xmlns="http://www.w3.org/2000/svg">
<g id="stash:star-light">
<path id="Vector" d="M21.5595 8.27568C22.2765 6.57477 24.7241 6.57477 25.4412 8.27568L29.2303 17.2484L39.0627 18.0253C40.9278 18.1724 41.6827 20.4658 40.2612 21.6653L32.7713 27.9883L35.0591 37.4417C35.4943 39.2337 33.5136 40.6508 31.9176 39.6895L23.5003 34.6241L15.081 39.6874C13.485 40.6487 11.5063 39.2317 11.9395 37.4396L14.2294 27.9862L6.73732 21.6633C5.31797 20.4637 6.07286 18.1703 7.93588 18.0232L17.7704 17.2463L21.5595 8.27568ZM23.5003 9.07122L19.7112 18.046C19.5625 18.3974 19.3184 18.7017 19.0057 18.9253C18.693 19.149 18.3238 19.2835 17.9386 19.3139L8.1062 20.0908L15.5961 26.4138C15.8904 26.6616 16.1095 26.9846 16.2293 27.3472C16.3491 27.7098 16.3651 28.098 16.2753 28.4689L13.9854 37.9223L22.4048 32.8548C22.7347 32.6564 23.1138 32.5514 23.5003 32.5514C23.8869 32.5514 24.2659 32.6564 24.5959 32.8548L33.0152 37.9223L30.7253 28.4689C30.6353 28.0982 30.6509 27.7101 30.7704 27.3475C30.8899 26.9849 31.1086 26.6618 31.4024 26.4138L38.8945 20.0908L29.0621 19.3139C28.6769 19.2835 28.3077 19.149 27.995 18.9253C27.6823 18.7017 27.4382 18.3974 27.2895 18.046L23.5003 9.07122Z" fill="white"/>
</g>
</svg>
