<svg width="34" height="37" viewBox="0 0 34 37" fill="none" xmlns="http://www.w3.org/2000/svg">
<path fill-rule="evenodd" clip-rule="evenodd" d="M3.0335 14.5259C4.24279 19.2638 6.79361 24.1436 9.77738 27.151C13.8574 31.2633 17.818 32.8799 21.1814 33.011C24.532 33.14 27.5073 31.7986 29.687 29.5973C30.6681 28.6042 31.2994 27.1682 31.5638 25.3839C31.8304 23.6061 31.7238 21.5575 31.3122 19.4358C29.7424 11.3207 22.2478 4.86735 12.9958 2.59729C8.89228 1.59124 5.76134 1.75676 4.05084 3.48511C3.09535 4.45246 2.5067 5.97014 2.33821 7.93495C2.17398 9.88686 2.42992 12.1634 3.0335 14.5259ZM0.0561205 7.84036C0.239541 5.66489 0.909236 3.65493 2.32541 2.22109C5.03832 -0.519753 9.51079 -0.328431 13.6719 0.692669C23.632 3.13686 31.839 10.1104 33.5708 19.0639C34.008 21.321 34.1381 23.5674 33.8353 25.5882C33.5367 27.6003 32.7945 29.464 31.4103 30.8613C30.059 32.2396 28.4373 33.3185 26.6489 34.0292C24.8604 34.7399 22.9445 35.0667 21.0236 34.9887C16.854 34.8275 12.3645 32.8347 8.02423 28.4601C4.744 25.1539 2.06308 19.956 0.796198 14.9967C0.160626 12.5095 -0.131565 10.033 0.0561205 7.84036Z" fill="white"/>
<path fill-rule="evenodd" clip-rule="evenodd" d="M21.6613 12.4021C22.2706 12.4937 22.6804 12.9986 22.5743 13.5311L21.5115 18.9374L26.5239 24.8123L29.679 29.1237L33.8532 35.5354C34.1589 36.0062 33.9717 36.6048 33.4351 36.871C32.8985 37.1394 32.2164 36.9754 31.9106 36.5046L27.7655 30.1355L24.9328 26.2693L16.6094 25.1446C16 25.0615 15.5819 24.561 15.6755 24.0284C15.7691 23.4959 16.3411 23.1274 16.9505 23.2104L23.0714 24.0391L19.4795 19.8257L11.3266 12.6684C11.2246 12.5857 11.1422 12.4804 11.0857 12.3604C11.0291 12.2404 10.9998 12.1088 11 11.9756C11.0002 11.8423 11.0299 11.7109 11.0868 11.591C11.1437 11.4712 11.2264 11.3662 11.3287 11.2838C11.553 11.0994 11.8322 10.9992 12.1198 11C12.4074 11.0008 12.686 11.1024 12.9094 11.2881L19.5918 17.1545L20.3697 13.2009C20.4737 12.6684 21.0519 12.3105 21.6613 12.4021Z" fill="white"/>
</svg>
