<svg width="42" height="42" viewBox="0 0 42 42" fill="none" xmlns="http://www.w3.org/2000/svg">
<path d="M1 21C1 30.428 1 35.14 3.93 38.07C6.858 40.998 11.572 40.998 21 40.998C30.428 40.998 35.142 40.998 38.072 38.07C40.786 35.356 40.984 31.11 41 22.998M19 1C10.89 1.014 6.644 1.214 3.93 3.928C2.296 5.56 1.574 7.748 1.254 11" stroke="white" stroke-width="2" stroke-linecap="round"/>
<path d="M23 19L41 1M41 1H30.312M41 1V11.688M39 3L21 21M21 21H29M21 21V13" stroke="white" stroke-width="2" stroke-linecap="round" stroke-linejoin="round"/>
</svg>
