<svg width="48" height="48" viewBox="0 0 48 48" fill="none" xmlns="http://www.w3.org/2000/svg">
<path d="M18 22H30M24 28V16M8 22.504C8 37.878 21.836 43.278 23.774 43.96C23.9247 44.0133 24.0753 44.0133 24.226 43.96C26.168 43.3 40 38.036 40 22.506V8.608C40.0004 8.42926 39.941 8.25553 39.8311 8.11452C39.7213 7.97351 39.5674 7.87334 39.394 7.83L24.194 4.024C24.0666 3.99216 23.9334 3.99216 23.806 4.024L8.606 7.83C8.4326 7.87334 8.2787 7.97351 8.16887 8.11452C8.05903 8.25553 7.99958 8.42926 8 8.608V22.504Z" stroke="white" stroke-width="2" stroke-miterlimit="10" stroke-linecap="round" stroke-linejoin="round"/>
</svg>
