<svg width="96" height="96" viewBox="0 0 96 96" fill="none" xmlns="http://www.w3.org/2000/svg">
<path d="M5 49C19.884 49 34.006 44.858 44.25 34.614C54.49 24.374 56.004 9.81596 70.484 9.22396C52.208 -2.53004 32.572 13.264 21.608 32.154" stroke="white" stroke-width="2" stroke-linecap="round" stroke-linejoin="round"/>
<path d="M42.726 5C21.012 5 5 27.28 5 49.002M73.5 12.844C79.76 16.46 89.126 25.158 91 32.154C80.506 34.966 67.326 35.77 54.794 28.534" stroke="white" stroke-width="2" stroke-linecap="round" stroke-linejoin="round"/>
<path d="M65.6341 18.254C67.3261 18.706 72.8241 21.218 74.1041 22.5M91.0001 46.998C76.1181 46.998 61.9941 51.142 51.7521 61.384C41.5081 71.626 39.9981 86.184 25.5161 86.776C43.7941 98.53 63.4281 82.736 74.3921 63.846" stroke="white" stroke-width="2" stroke-linecap="round" stroke-linejoin="round"/>
<path d="M53.274 91C74.988 91 91 68.72 91 46.998M22.5 83.156C16.24 79.54 6.876 70.84 5 63.846C15.494 61.034 28.674 60.23 41.206 67.466" stroke="white" stroke-width="2" stroke-linecap="round" stroke-linejoin="round"/>
<path d="M30.366 77.746C28.674 77.292 23.176 74.782 21.896 73.5" stroke="white" stroke-width="2" stroke-linecap="round" stroke-linejoin="round"/>
</svg>
