<?xml version="1.0" encoding="UTF-8"?>
<svg id="Layer_2" xmlns="http://www.w3.org/2000/svg" viewBox="0 0 732.48 636.08">
  <defs>
    <style>
      .cls-1 {
        fill: #fff;
      }
    </style>
  </defs>
  <g id="Layer_1-2" data-name="Layer_1">
    <polygon class="cls-1" points="732.48 634.34 433.47 634.34 433.47 554.34 593.91 554.34 503.67 398.04 549.86 318.04 732.48 634.34"/>
    <polygon class="cls-1" points="366.24 160 138.56 554.34 299 554.34 299 634.34 0 634.34 366.24 0 503.67 238.04 457.48 318.04 366.24 160"/>
    <polygon class="cls-1" points="279.89 486.52 241.99 420.88 242.32 420.69 279.89 486.52"/>
    <polygon class="cls-1" points="299 81.74 138.56 81.74 169.78 135.81 195.07 179.62 216.96 217.66 216.86 217.81 169.51 293.23 148.42 257.33 98.56 172.45 98.03 171.53 0 1.74 299 1.74 299 81.74"/>
    <polygon class="cls-1" points="98.56 172.45 148.42 257.33 147.78 257.7 98.56 172.45"/>
    <polygon class="cls-1" points="216.86 217.81 216.96 217.66 195.07 179.62 217.06 217.7 216.86 217.81"/>
    <polygon class="cls-1" points="732.48 1.74 549.86 318.04 503.67 398.04 366.24 636.08 297.51 517.05 279.89 486.52 242.32 420.69 241.73 419.65 289.39 343.91 310.97 381.06 311.28 380.88 366.24 476.08 457.48 318.04 503.67 238.04 593.91 81.74 433.47 81.74 433.47 1.74 732.48 1.74"/>
    <polygon class="cls-1" points="297.51 517.05 297.39 517.19 279.89 486.52 297.51 517.05"/>
    <polygon class="cls-1" points="98.03 171.53 98.56 172.45 98.02 171.53 98.03 171.53"/>
    <polygon class="cls-1" points="195.07 179.62 169.78 135.81 169.85 135.78 195.07 179.62"/>
  </g>
</svg>