<svg width="96" height="96" viewBox="0 0 96 96" fill="none" xmlns="http://www.w3.org/2000/svg">
<path d="M19.7157 42.3432C11.7169 50.342 7.71466 54.3442 7.71749 59.3137C7.71466 64.2833 11.7169 68.2855 19.7157 76.2843C27.7145 84.2831 31.7167 88.2853 36.6862 88.2825C39.9078 88.2853 42.7193 86.6052 46.4754 83.245M64.9224 64.9225L67.7989 62.1421C75.7977 54.1434 79.8 50.1411 79.7971 45.1716C79.8 40.202 75.7977 36.1998 67.7989 28.201C59.8001 20.2022 55.7979 16.2 50.8284 16.2028C46.8262 16.2 43.4547 18.7908 38.1203 23.9782M29.7905 32.2683L33.9398 53.2185C34.5819 56.4627 34.9015 58.0834 36.047 58.4482C37.1925 58.8131 38.3437 57.6563 40.6545 55.3454L44.0317 51.9683C46.3425 49.6575 47.4965 48.5035 48.6392 48.8655C49.7847 49.2304 50.1043 50.8511 50.7464 54.0953L54.8957 75.0454M60.7279 21.13L64.1163 18.7088C66.3649 17.1051 67.4878 16.299 68.6871 16.0388C69.8659 15.7776 71.0961 15.8781 72.2169 16.3273C73.354 16.7855 74.3298 17.7613 76.2842 19.7157C78.2358 21.6674 79.2145 22.646 79.6727 23.783C80.1222 24.9027 80.2237 26.1318 79.964 27.3101C79.6981 28.5093 78.8949 29.635 77.294 31.8808L74.87 35.2721" stroke="white" stroke-width="2" stroke-linecap="round" stroke-linejoin="round"/>
</svg>
