<svg width="48" height="48" viewBox="0 0 48 48" fill="none" xmlns="http://www.w3.org/2000/svg">
<path d="M20.5072 36.409C20.2483 36.5585 19.9834 36.6006 19.7124 36.5354C19.4413 36.4702 19.2354 36.3142 19.0946 36.0676C18.9539 35.8209 18.9221 35.5652 18.9994 35.3004C19.0766 35.0357 19.2459 34.8278 19.5072 34.6769L31.6024 27.6938C30.1579 27.5778 28.9266 27.2064 27.9083 26.5796C26.89 25.9527 26.0718 25.1981 25.4537 24.3155L19.7325 27.6187C19.4736 27.7682 19.2086 27.8103 18.9376 27.7451C18.6666 27.6798 18.4607 27.5239 18.3199 27.2772C18.1791 27.0306 18.1474 26.7749 18.2246 26.5101C18.3019 26.2453 18.4712 26.0375 18.7325 25.8866L24.4537 22.5835C24.0199 21.5345 23.7855 20.4128 23.7506 19.2182C23.7187 18.0234 24.0027 16.8071 24.6024 15.5694L5.91452 26.3589C5.65562 26.5084 5.39127 26.5502 5.12145 26.4842C4.85164 26.4183 4.64513 26.2627 4.50191 26.0175C4.35869 25.7722 4.32754 25.5162 4.40845 25.2493C4.48936 24.9824 4.65805 24.7749 4.91452 24.6269L28.6163 10.9427C30.8868 9.63177 33.2605 9.27437 35.7374 9.87045C38.2129 10.4642 40.073 11.839 41.3177 13.9948C42.5624 16.1507 42.8243 18.4513 42.1034 20.8967C41.3825 23.3421 39.8868 25.2202 37.6163 26.5311L20.5072 36.409ZM36.6163 24.7991C38.369 23.7871 39.5277 22.326 40.0924 20.4157C40.6571 18.5054 40.4588 16.7177 39.4975 15.0527C38.5362 13.3876 37.0871 12.322 35.1504 11.8559C33.2137 11.3898 31.369 11.6628 29.6163 12.6747C27.8635 13.6866 26.7048 15.1477 26.1401 17.058C25.5754 18.9683 25.7737 20.756 26.735 22.4211C27.6963 24.0862 29.1454 25.1517 31.0821 25.6178C33.0188 26.0839 34.8635 25.811 36.6163 24.7991ZM8.09131 34.3397C7.83241 34.4892 7.56806 34.531 7.29824 34.4651C7.02843 34.3991 6.82192 34.2435 6.6787 33.9983C6.53548 33.753 6.50433 33.497 6.58524 33.2301C6.66615 32.9632 6.83484 32.7558 7.09131 32.6077L15.0861 27.9919C15.3438 27.8431 15.6081 27.8014 15.8791 27.8666C16.1502 27.9318 16.3567 28.0874 16.4987 28.3333C16.6407 28.5793 16.6718 28.8354 16.5921 29.1015C16.5125 29.3677 16.3438 29.5752 16.0861 29.724L8.09131 34.3397ZM13.9145 40.2153C13.6556 40.3648 13.3913 40.4066 13.1215 40.3406C12.8516 40.2747 12.6451 40.1191 12.5019 39.8739C12.3587 39.6286 12.3275 39.3726 12.4085 39.1057C12.4894 38.8388 12.6581 38.6313 12.9145 38.4833L15.8608 36.7822C16.1185 36.6334 16.3829 36.5917 16.6539 36.6569C16.9249 36.7221 17.1308 36.8781 17.2716 37.1247C17.4124 37.3714 17.4442 37.6271 17.3669 37.8918C17.2896 38.1566 17.1203 38.3644 16.859 38.5153L13.9145 40.2153Z" fill="white"/>
</svg>
