<svg width="48" height="48" viewBox="0 0 48 48" fill="none" xmlns="http://www.w3.org/2000/svg">
<path d="M4 19.9999H10C10.5304 19.9999 11.0391 20.2107 11.4142 20.5857C11.7893 20.9608 12 21.4695 12 21.9999V39.9999C12 40.5304 11.7893 41.0391 11.4142 41.4142C11.0391 41.7892 10.5304 41.9999 10 41.9999H4C3.46957 41.9999 2.96086 41.7892 2.58579 41.4142C2.21071 41.0391 2 40.5304 2 39.9999V21.9999C2 21.4695 2.21071 20.9608 2.58579 20.5857C2.96086 20.2107 3.46957 19.9999 4 19.9999ZM4 21.9999V39.9999H10V21.9999H4ZM35.44 38.0599L41.44 28.0599C41.8 27.4599 42 26.7399 42 25.9999V23.9999C42 22.9391 41.5786 21.9217 40.8284 21.1715C40.0783 20.4214 39.0609 19.9999 38 19.9999H26.78L29.7 9.11995V9.07995C29.7947 8.74278 29.7964 8.38626 29.7048 8.04823C29.6133 7.71019 29.4319 7.40324 29.18 7.15995L17.18 19.1799C16.44 19.8999 16 20.8999 16 21.9999V35.9999C16 37.0608 16.4214 38.0782 17.1716 38.8284C17.9217 39.5785 18.9391 39.9999 20 39.9999H32C33.46 39.9999 34.74 39.2199 35.44 38.0599ZM44 25.9999C44 27.1799 43.66 28.2999 43.06 29.2199L37.24 38.8999C36.22 40.7599 34.26 41.9999 32 41.9999H20C18.4087 41.9999 16.8826 41.3678 15.7574 40.2426C14.6321 39.1174 14 37.5912 14 35.9999V21.9999C14 20.3399 14.68 18.8399 15.76 17.7599L29.18 4.31995L30.6 5.73995C31.66 6.79995 32 8.31995 31.62 9.67995L29.38 17.9999H38C39.5913 17.9999 41.1174 18.6321 42.2426 19.7573C43.3679 20.8825 44 22.4086 44 23.9999V25.9999Z" fill="white"/>
</svg>
