<svg width="48" height="48" viewBox="0 0 48 48" fill="none" xmlns="http://www.w3.org/2000/svg">
<path d="M17.5342 28.6777L20.8862 29.5758L17.961 40.4928C17.6869 41.5155 17.4536 42.3865 17.3524 43.0281C17.3028 43.3505 17.2649 43.7363 17.3257 44.1066C17.3619 44.3708 17.4598 44.6227 17.6116 44.842C17.7633 45.0612 17.9646 45.2416 18.1991 45.3686C18.438 45.4871 18.7015 45.5477 18.9682 45.5453C19.2349 45.543 19.4973 45.4778 19.7341 45.3551C20.0536 45.1857 20.3452 44.9685 20.599 44.711C21.0662 44.2592 21.6425 43.5667 22.3216 42.7548L22.3748 42.693L32.9222 30.0474L32.9905 29.9687C34.0759 28.6678 34.9833 27.5814 35.5525 26.6509C36.1427 25.6814 36.5411 24.6055 36.1684 23.4226C35.795 22.2422 34.8468 21.5921 33.8062 21.1402C32.8053 20.7068 31.4376 20.3403 29.8008 19.9018L26.3485 18.9767L29.2737 8.05973C29.5478 7.03702 29.7811 6.16601 29.8822 5.52441C29.9461 5.16839 29.9551 4.80469 29.909 4.44593C29.8728 4.18176 29.7749 3.92984 29.6231 3.71058C29.4714 3.49133 29.2701 3.31091 29.0356 3.18396C28.7973 3.06343 28.5335 3.00175 28.2665 3.0041C27.9994 3.00645 27.7368 3.07275 27.5006 3.19746C27.1811 3.36682 26.8895 3.58403 26.6357 3.84157C26.1685 4.2933 25.5922 4.98589 24.9131 5.7978L24.8598 5.85957L14.3125 18.5051L14.2442 18.5839C13.1588 19.8848 12.2514 20.9712 11.6822 21.9017C11.092 22.8711 10.6911 23.9464 11.0663 25.1299C11.4397 26.3104 12.3878 26.9604 13.4285 27.4123C14.4294 27.8457 15.7971 28.2122 17.4339 28.6508L17.5342 28.6777Z" stroke="white" stroke-width="2"/>
</svg>
