<svg width="40" height="40" viewBox="0 0 40 40" fill="none" xmlns="http://www.w3.org/2000/svg">
<path d="M20.0039 14.002C17.7939 14.002 16.0039 15.346 16.0039 17.002C16.0039 18.658 17.7939 20.002 20.0039 20.002C22.2139 20.002 24.0039 21.346 24.0039 23.002C24.0039 24.658 22.2119 26.002 20.0039 26.002M20.0039 14.002C21.7439 14.002 23.2279 14.836 23.7759 16.002M20.0039 14.002V12.002M20.0039 26.002C18.2639 26.002 16.7799 25.168 16.2319 24.002M20.0039 26.002V28.002" stroke="white" stroke-width="2" stroke-linecap="round" stroke-linejoin="round"/>
<path d="M23 1.00205H20C11.044 1.00205 6.564 1.00205 3.782 3.78405C1 6.56605 1 11.044 1 20.002C1 28.958 1 33.436 3.782 36.22C6.564 39 11.042 39 20 39C28.956 39 33.436 39 36.218 36.218C39 33.436 39 28.96 39 20V17M29 10.998L37.352 2.64205M39 9.95405L38.764 3.77205C38.764 2.31405 37.894 1.40605 36.308 1.29205L30.06 0.998047" stroke="white" stroke-width="2" stroke-linecap="round" stroke-linejoin="round"/>
</svg>
