<svg width="48" height="48" viewBox="0 0 48 48" fill="none" xmlns="http://www.w3.org/2000/svg">
<path d="M14.2129 43.2001C13.6001 43.2001 13.0185 43.0752 12.4681 42.8256C11.9204 42.575 11.4196 42.2325 10.9873 41.8129C10.5523 41.3952 10.2054 40.8946 9.9671 40.3405C9.72883 39.7865 9.60405 39.1903 9.60014 38.5872C9.60014 37.6112 9.70014 36.6616 9.90014 35.7384C10.2972 33.8836 11.1041 32.1411 12.2617 30.6384C12.8498 29.876 13.5167 29.1777 14.2513 28.5552L18.6193 24.9193C18.7543 24.8071 18.8629 24.6666 18.9374 24.5077C19.012 24.3489 19.0506 24.1755 19.0506 24C19.0506 23.8246 19.012 23.6512 18.9374 23.4924C18.8629 23.3335 18.7543 23.193 18.6193 23.0808L14.2513 19.4256C12.7822 18.2071 11.6032 16.6764 10.8001 14.9448C10.0048 13.2093 9.59539 11.3219 9.60014 9.41285C9.60014 8.80005 9.72494 8.21845 9.97454 7.66805C10.2241 7.11765 10.5617 6.62405 10.9873 6.18725C11.405 5.75219 11.9056 5.40527 12.4597 5.16701C13.0137 4.92874 13.6099 4.80396 14.2129 4.80005H33.7873C34.4001 4.80005 34.9817 4.92485 35.5321 5.17445C36.0825 5.42405 36.5761 5.76165 37.0129 6.18725C37.448 6.60491 37.7949 7.10555 38.0332 7.65957C38.2714 8.2136 38.3962 8.80977 38.4001 9.41285C38.4148 11.3209 38.0117 13.2091 37.2193 14.9448C36.4149 16.6802 35.2295 18.2118 33.7513 19.4256L29.3833 23.0808C29.248 23.1928 29.1391 23.3332 29.0643 23.4921C28.9895 23.651 28.9507 23.8244 28.9507 24C28.9507 24.1757 28.9895 24.3491 29.0643 24.508C29.1391 24.6669 29.248 24.8073 29.3833 24.9193L33.7513 28.5552C34.5001 29.1792 35.1625 29.8673 35.7385 30.6193C36.3145 31.3681 36.7953 32.1744 37.1809 33.0385C37.5697 33.8993 37.8697 34.7929 38.0809 35.7193C38.2937 36.6441 38.4001 37.6 38.4001 38.5872C38.4001 39.2 38.2753 39.7817 38.0257 40.3321C37.7761 40.8825 37.4385 41.3761 37.0129 41.8129C36.5953 42.2479 36.0946 42.5948 35.5406 42.8331C34.9866 43.0714 34.3904 43.1961 33.7873 43.2001H14.2129ZM33.6937 40.8C33.9969 40.8018 34.2975 40.7431 34.5777 40.6273C34.8579 40.5115 35.1122 40.3409 35.3257 40.1256C35.5366 39.9176 35.7024 39.6685 35.8129 39.3937C35.9192 39.1053 35.9823 38.8028 36.0001 38.4961C36.0001 36.9089 35.6753 35.4209 35.0257 34.0321C34.3641 32.6351 33.4039 31.4005 32.2129 30.4153L27.8449 26.7577C27.439 26.4208 27.1121 25.9988 26.8873 25.5216C26.6649 25.0431 26.5496 24.5218 26.5496 23.9941C26.5496 23.4663 26.6649 22.945 26.8873 22.4664C27.1129 21.9769 27.4321 21.5641 27.8449 21.2281L32.2129 17.5896C33.4007 16.6128 34.3552 15.3828 35.0065 13.9896C35.6561 12.6024 35.9873 11.1088 36.0001 9.50885C36.0019 9.20564 35.9432 8.90513 35.8274 8.62491C35.7116 8.34468 35.541 8.09037 35.3257 7.87685C35.1177 7.66598 34.8686 7.50014 34.5937 7.38965C34.3055 7.28257 34.003 7.21867 33.6961 7.20005H14.3065C13.9985 7.19778 13.693 7.25482 13.4065 7.36805C13.13 7.4842 12.8807 7.65666 12.6745 7.87445C12.4684 8.08636 12.3033 8.33453 12.1873 8.60645C12.0753 8.86885 12.0129 9.16885 12.0001 9.50645C12.0001 10.2808 12.0817 11.0432 12.2449 11.7936C12.4049 12.5456 12.6545 13.2704 12.9937 13.9681C13.3297 14.6688 13.7233 15.3192 14.1745 15.9192C14.6257 16.5192 15.1633 17.0752 15.7873 17.5872L20.1553 21.2256C20.5681 21.5616 20.8873 21.9736 21.1129 22.4617C21.3357 22.9405 21.4512 23.4623 21.4512 23.9904C21.4512 24.5186 21.3357 25.0404 21.1129 25.5193C20.8873 25.9944 20.5681 26.4064 20.1553 26.7552L15.7873 30.4128C14.5973 31.3952 13.6426 32.632 12.9937 34.0321C12.3441 35.4309 12.0051 36.9538 12.0001 38.4961C12.0001 38.8193 12.0561 39.1185 12.1681 39.3937C12.2843 39.6702 12.4568 39.9195 12.6745 40.1256C12.9001 40.3368 13.1441 40.4993 13.4065 40.6129C13.6689 40.7249 13.9689 40.7873 14.3065 40.8H33.6937Z" fill="white"/>
</svg>
