<svg width="48" height="48" viewBox="0 0 48 48" fill="none" xmlns="http://www.w3.org/2000/svg">
<path fill-rule="evenodd" clip-rule="evenodd" d="M18.82 8.016C18.8794 8.00525 18.9396 7.99989 19 8H34.036C34.936 8 35.664 8 36.256 8.04C36.8235 8.06203 37.3836 8.17688 37.914 8.38C38.5206 8.63128 39.0718 8.99957 39.5361 9.46387C40.0004 9.92817 40.3687 10.4794 40.62 11.086C40.8231 11.6164 40.938 12.1765 40.96 12.744C41 13.336 41 14.064 41 14.964V15C41.6103 15.4581 42.1077 16.0499 42.454 16.73C42.756 17.322 42.882 17.962 42.942 18.69C43 19.4 43 20.274 43 21.358V32.642C43 33.726 43 34.602 42.942 35.308C42.882 36.038 42.756 36.678 42.454 37.27C41.9747 38.2102 41.2102 38.9747 40.27 39.454C39.678 39.756 39.038 39.882 38.31 39.942C37.6 40 36.724 40 35.64 40H12.36C11.276 40 10.4 40 9.694 39.942C8.964 39.882 8.324 39.756 7.732 39.454C6.79101 38.9751 6.02579 38.2106 5.546 37.27C5.246 36.678 5.12 36.038 5.06 35.31C5 34.6 5 33.724 5 32.64V15.36C5 14.276 5 13.4 5.058 12.694C5.118 11.964 5.244 11.324 5.544 10.732C6.02345 9.79071 6.78871 9.02545 7.73 8.546C8.322 8.246 8.962 8.12 9.69 8.06C10.4 8 11.276 8 12.36 8H17.75C18.168 8 18.512 8 18.822 8.016M34 10C34.946 10 35.604 10 36.12 10.036C36.628 10.07 36.922 10.136 37.148 10.228C37.5121 10.3788 37.8429 10.5998 38.1216 10.8784C38.4002 11.1571 38.6212 11.4879 38.772 11.852C38.866 12.078 38.93 12.372 38.964 12.88C38.988 13.222 38.996 13.63 38.998 14.14C38.7693 14.1027 38.5391 14.0753 38.308 14.058C37.6 14 36.728 14 35.642 14H27.354C26.46 14 26.152 13.996 25.884 13.94C25.1782 13.7994 24.5464 13.4097 24.104 12.842C23.936 12.626 23.794 12.352 23.394 11.552L23.35 11.462C23.03 10.826 22.808 10.378 22.528 10H34ZM17.646 10C18.54 10 18.848 10.004 19.116 10.06C19.8218 10.2006 20.4536 10.5903 20.896 11.158C21.064 11.374 21.206 11.648 21.606 12.448L21.65 12.538C21.99 13.212 22.22 13.678 22.526 14.07C23.2629 15.0167 24.3156 15.6669 25.492 15.902C25.978 16.002 26.498 16.002 27.252 16H35.6C36.736 16 37.53 16 38.146 16.052C38.75 16.1 39.098 16.192 39.362 16.326C39.927 16.6137 40.3863 17.073 40.674 17.638C40.808 17.902 40.9 18.25 40.948 18.854C41 19.472 41 20.264 41 21.4V32.6C41 33.736 41 34.53 40.948 35.146C40.9 35.75 40.808 36.098 40.674 36.362C40.3863 36.927 39.927 37.3863 39.362 37.674C39.098 37.808 38.75 37.9 38.146 37.948C37.53 38 36.736 38 35.6 38H12.4C11.264 38 10.472 38 9.854 37.948C9.25 37.9 8.902 37.808 8.638 37.674C8.07301 37.3863 7.61371 36.927 7.326 36.362C7.192 36.098 7.1 35.75 7.052 35.146C7 34.53 7 33.736 7 32.6V15.4C7 14.264 7 13.472 7.052 12.854C7.1 12.25 7.192 11.902 7.326 11.638C7.61405 11.0738 8.07332 10.6152 8.638 10.328C8.902 10.192 9.25 10.1 9.854 10.052C10.472 10 11.264 10 12.4 10H17.646Z" fill="white"/>
</svg>
